<mxfile host="app.diagrams.net" agent="Mozilla/5.0 (Macintosh; Intel Mac OS X 10_15_7) AppleWebKit/537.36 (KHTML, like Gecko) Chrome/131.0.0.0 Safari/537.36" version="25.0.3">
  <diagram name="Page-1" id="197159a0-c6a4-9194-75a8-e4174976684c">
    <mxGraphModel dx="843" dy="476" grid="1" gridSize="10" guides="1" tooltips="1" connect="1" arrows="1" fold="1" page="1" pageScale="1.5" pageWidth="1169" pageHeight="826" background="none" math="0" shadow="0">
      <root>
        <mxCell id="0" style=";html=1;" />
        <mxCell id="1" style=";html=1;" parent="0" />
        <mxCell id="6dqqA6lwFiBKSvKB13f8-22" value="" style="shadow=0;dashed=0;html=1;strokeColor=none;fillColor=#4495D1;labelPosition=center;verticalLabelPosition=bottom;verticalAlign=top;align=center;outlineConnect=0;shape=mxgraph.veeam.globe;" vertex="1" parent="1">
          <mxGeometry x="810" y="169" width="44.8" height="44.8" as="geometry" />
        </mxCell>
        <mxCell id="6dqqA6lwFiBKSvKB13f8-19" value="" style="rounded=0;whiteSpace=wrap;html=1;" vertex="1" parent="1">
          <mxGeometry x="600" y="320" width="560" height="280" as="geometry" />
        </mxCell>
        <mxCell id="1257a543d1cacc4b-52" value="Final Project" style="text;strokeColor=none;fillColor=none;html=1;fontSize=24;fontStyle=1;verticalAlign=middle;align=center;" parent="1" vertex="1">
          <mxGeometry x="160" y="60" width="1420" height="40" as="geometry" />
        </mxCell>
        <mxCell id="6dqqA6lwFiBKSvKB13f8-1" value="&lt;font style=&quot;font-size: 16px;&quot;&gt;Internet&lt;/font&gt;" style="ellipse;shape=cloud;whiteSpace=wrap;html=1;" vertex="1" parent="1">
          <mxGeometry x="810" y="180" width="120" height="80" as="geometry" />
        </mxCell>
        <mxCell id="6dqqA6lwFiBKSvKB13f8-2" value="" style="shadow=0;dashed=0;html=1;strokeColor=none;fillColor=#4495D1;labelPosition=center;verticalLabelPosition=bottom;verticalAlign=top;align=center;outlineConnect=0;shape=mxgraph.veeam.vm_linux;" vertex="1" parent="1">
          <mxGeometry x="648" y="400" width="57.2" height="55.2" as="geometry" />
        </mxCell>
        <mxCell id="6dqqA6lwFiBKSvKB13f8-3" value="" style="shadow=0;dashed=0;html=1;strokeColor=none;fillColor=#4495D1;labelPosition=center;verticalLabelPosition=bottom;verticalAlign=top;align=center;outlineConnect=0;shape=mxgraph.veeam.vm_linux;" vertex="1" parent="1">
          <mxGeometry x="777.6" y="401" width="57.2" height="55.2" as="geometry" />
        </mxCell>
        <mxCell id="6dqqA6lwFiBKSvKB13f8-4" value="" style="shadow=0;dashed=0;html=1;strokeColor=none;fillColor=#4495D1;labelPosition=center;verticalLabelPosition=bottom;verticalAlign=top;align=center;outlineConnect=0;shape=mxgraph.veeam.vm_linux;" vertex="1" parent="1">
          <mxGeometry x="918" y="400" width="57.2" height="55.2" as="geometry" />
        </mxCell>
        <mxCell id="6dqqA6lwFiBKSvKB13f8-5" value="" style="shadow=0;dashed=0;html=1;strokeColor=none;fillColor=#4495D1;labelPosition=center;verticalLabelPosition=bottom;verticalAlign=top;align=center;outlineConnect=0;shape=mxgraph.veeam.vm_linux;" vertex="1" parent="1">
          <mxGeometry x="1048" y="400" width="57.2" height="55.2" as="geometry" />
        </mxCell>
        <mxCell id="6dqqA6lwFiBKSvKB13f8-9" value="&lt;ol&gt;&lt;li&gt;&lt;font style=&quot;font-size: 14px;&quot;&gt;ca.harms-devops.ru&lt;/font&gt;&lt;/li&gt;&lt;li&gt;&lt;font style=&quot;font-size: 14px;&quot;&gt;openvpn.harms-devops.ru&lt;/font&gt;&lt;/li&gt;&lt;li&gt;&lt;font style=&quot;font-size: 14px;&quot;&gt;monitor.harms-devops.ru&lt;/font&gt;&lt;/li&gt;&lt;li&gt;&lt;font style=&quot;font-size: 14px;&quot;&gt;backup.harms-devops.ru&lt;/font&gt;&lt;/li&gt;&lt;li&gt;&lt;font style=&quot;font-size: 14px;&quot;&gt;Admin&lt;/font&gt;&lt;/li&gt;&lt;li&gt;&lt;font style=&quot;font-size: 14px;&quot;&gt;Clients VPN&lt;/font&gt;&lt;/li&gt;&lt;/ol&gt;" style="text;strokeColor=none;fillColor=none;html=1;whiteSpace=wrap;verticalAlign=middle;overflow=hidden;" vertex="1" parent="1">
          <mxGeometry x="627" y="600" width="223" height="190" as="geometry" />
        </mxCell>
        <mxCell id="6dqqA6lwFiBKSvKB13f8-10" value="" style="pointerEvents=1;shadow=0;dashed=0;html=1;strokeColor=none;fillColor=#4495D1;labelPosition=center;verticalLabelPosition=bottom;verticalAlign=top;align=center;outlineConnect=0;shape=mxgraph.veeam.laptop;" vertex="1" parent="1">
          <mxGeometry x="501.6" y="180" width="58.4" height="44" as="geometry" />
        </mxCell>
        <mxCell id="6dqqA6lwFiBKSvKB13f8-11" value="" style="pointerEvents=1;shadow=0;dashed=0;html=1;strokeColor=none;fillColor=#4495D1;labelPosition=center;verticalLabelPosition=bottom;verticalAlign=top;align=center;outlineConnect=0;shape=mxgraph.veeam.laptop;" vertex="1" parent="1">
          <mxGeometry x="521.6" y="210" width="58.4" height="44" as="geometry" />
        </mxCell>
        <mxCell id="6dqqA6lwFiBKSvKB13f8-12" value="Clients" style="pointerEvents=1;shadow=0;dashed=0;html=1;strokeColor=none;fillColor=#4495D1;labelPosition=center;verticalLabelPosition=bottom;verticalAlign=top;align=center;outlineConnect=0;shape=mxgraph.veeam.laptop;" vertex="1" parent="1">
          <mxGeometry x="541.6" y="238" width="58.4" height="44" as="geometry" />
        </mxCell>
        <mxCell id="6dqqA6lwFiBKSvKB13f8-17" value="" style="endArrow=none;html=1;rounded=0;fillColor=#1ba1e2;strokeColor=#006EAF;strokeWidth=2;" edge="1" parent="1">
          <mxGeometry width="50" height="50" relative="1" as="geometry">
            <mxPoint x="820" y="220" as="sourcePoint" />
            <mxPoint x="569" y="220" as="targetPoint" />
          </mxGeometry>
        </mxCell>
        <mxCell id="6dqqA6lwFiBKSvKB13f8-18" value="" style="endArrow=none;html=1;rounded=0;exitX=0.917;exitY=0.5;exitDx=0;exitDy=0;exitPerimeter=0;entryX=0.003;entryY=0.569;entryDx=0;entryDy=0;entryPerimeter=0;fillColor=#60a917;strokeColor=#2D7600;strokeWidth=2;endSize=8;" edge="1" parent="1">
          <mxGeometry width="50" height="50" relative="1" as="geometry">
            <mxPoint x="915" y="220" as="sourcePoint" />
            <mxPoint x="1170" y="221" as="targetPoint" />
          </mxGeometry>
        </mxCell>
        <mxCell id="6dqqA6lwFiBKSvKB13f8-90" value="tcp/1985" style="edgeLabel;html=1;align=center;verticalAlign=middle;resizable=0;points=[];" vertex="1" connectable="0" parent="6dqqA6lwFiBKSvKB13f8-18">
          <mxGeometry x="-0.4388" y="-1" relative="1" as="geometry">
            <mxPoint y="-1" as="offset" />
          </mxGeometry>
        </mxCell>
        <mxCell id="6dqqA6lwFiBKSvKB13f8-8" value="Admin PC" style="pointerEvents=1;shadow=0;dashed=0;html=1;strokeColor=none;fillColor=#4495D1;labelPosition=center;verticalLabelPosition=bottom;verticalAlign=top;align=center;outlineConnect=0;shape=mxgraph.veeam.2d.workstation;movableLabel=0;autosize=0;fillStyle=auto;" vertex="1" parent="1">
          <mxGeometry x="1170" y="194.4" width="76.4" height="51.2" as="geometry" />
        </mxCell>
        <mxCell id="6dqqA6lwFiBKSvKB13f8-20" value="" style="shadow=0;dashed=0;html=1;strokeColor=none;fillColor=#4495D1;labelPosition=center;verticalLabelPosition=bottom;verticalAlign=top;align=center;outlineConnect=0;shape=mxgraph.veeam.2d.cloud;" vertex="1" parent="1">
          <mxGeometry x="610" y="340" width="58.8" height="41.6" as="geometry" />
        </mxCell>
        <mxCell id="6dqqA6lwFiBKSvKB13f8-21" value="" style="shadow=0;dashed=0;html=1;strokeColor=none;fillColor=#4495D1;labelPosition=center;verticalLabelPosition=bottom;verticalAlign=top;align=center;outlineConnect=0;shape=mxgraph.veeam.2d.alarm;" vertex="1" parent="1">
          <mxGeometry x="770" y="436.6" width="52.8" height="37.6" as="geometry" />
        </mxCell>
        <mxCell id="6dqqA6lwFiBKSvKB13f8-23" value="" style="shadow=0;dashed=0;html=1;strokeColor=none;fillColor=#4495D1;labelPosition=center;verticalLabelPosition=bottom;verticalAlign=top;align=center;outlineConnect=0;shape=mxgraph.veeam.encryption_key;" vertex="1" parent="1">
          <mxGeometry x="632" y="430" width="36.8" height="50.8" as="geometry" />
        </mxCell>
        <mxCell id="6dqqA6lwFiBKSvKB13f8-24" value="" style="shadow=0;dashed=0;html=1;strokeColor=none;fillColor=#4495D1;labelPosition=center;verticalLabelPosition=bottom;verticalAlign=top;align=center;outlineConnect=0;shape=mxgraph.veeam.2d.backup_browser;" vertex="1" parent="1">
          <mxGeometry x="1030" y="436" width="44.8" height="44.8" as="geometry" />
        </mxCell>
        <mxCell id="6dqqA6lwFiBKSvKB13f8-25" value="" style="shadow=0;dashed=0;html=1;strokeColor=none;fillColor=#4495D1;labelPosition=center;verticalLabelPosition=bottom;verticalAlign=top;align=center;outlineConnect=0;shape=mxgraph.veeam.vpn;" vertex="1" parent="1">
          <mxGeometry x="900" y="437" width="54" height="38" as="geometry" />
        </mxCell>
        <mxCell id="6dqqA6lwFiBKSvKB13f8-26" value="1" style="rounded=0;whiteSpace=wrap;html=1;" vertex="1" parent="1">
          <mxGeometry x="705.2" y="380" width="20" height="20" as="geometry" />
        </mxCell>
        <mxCell id="6dqqA6lwFiBKSvKB13f8-27" value="2" style="rounded=0;whiteSpace=wrap;html=1;" vertex="1" parent="1">
          <mxGeometry x="834.8" y="381" width="20" height="20" as="geometry" />
        </mxCell>
        <mxCell id="6dqqA6lwFiBKSvKB13f8-34" value="3" style="rounded=0;whiteSpace=wrap;html=1;" vertex="1" parent="1">
          <mxGeometry x="975.1999999999999" y="380" width="20" height="20" as="geometry" />
        </mxCell>
        <mxCell id="6dqqA6lwFiBKSvKB13f8-35" value="4" style="rounded=0;whiteSpace=wrap;html=1;" vertex="1" parent="1">
          <mxGeometry x="1105.2" y="380" width="20" height="20" as="geometry" />
        </mxCell>
        <mxCell id="6dqqA6lwFiBKSvKB13f8-46" value="" style="endArrow=classicThin;html=1;rounded=1;edgeStyle=elbowEdgeStyle;elbow=vertical;strokeWidth=2;fillColor=#60a917;strokeColor=#2D7600;curved=0;startArrow=classicThin;startFill=1;jumpStyle=none;endFill=1;flowAnimation=0;shadow=0;noJump=0;ignoreEdge=0;orthogonalLoop=0;orthogonal=0;enumerate=0;comic=0;snapToPoint=0;" edge="1" parent="1" source="6dqqA6lwFiBKSvKB13f8-5">
          <mxGeometry relative="1" as="geometry">
            <mxPoint x="876.4" y="288.8" as="sourcePoint" />
            <mxPoint x="677" y="400" as="targetPoint" />
            <Array as="points">
              <mxPoint x="880" y="370" />
              <mxPoint x="920" y="360" />
            </Array>
          </mxGeometry>
        </mxCell>
        <mxCell id="6dqqA6lwFiBKSvKB13f8-47" value="tcp/1985" style="edgeLabel;resizable=0;html=1;;align=center;verticalAlign=middle;" connectable="0" vertex="1" parent="6dqqA6lwFiBKSvKB13f8-46">
          <mxGeometry relative="1" as="geometry">
            <mxPoint x="-137" as="offset" />
          </mxGeometry>
        </mxCell>
        <mxCell id="6dqqA6lwFiBKSvKB13f8-59" value="" style="endArrow=classicThin;html=1;rounded=1;elbow=vertical;edgeStyle=orthogonalEdgeStyle;strokeWidth=2;fillColor=#1ba1e2;strokeColor=#006EAF;jumpStyle=line;curved=0;endFill=1;" edge="1" parent="1">
          <mxGeometry relative="1" as="geometry">
            <mxPoint x="864.3999999999997" y="260" as="sourcePoint" />
            <mxPoint x="800.4" y="401" as="targetPoint" />
            <Array as="points">
              <mxPoint x="864.4" y="350" />
              <mxPoint x="800.4" y="350" />
            </Array>
          </mxGeometry>
        </mxCell>
        <mxCell id="6dqqA6lwFiBKSvKB13f8-60" value="udp/1194" style="edgeLabel;resizable=0;html=1;;align=center;verticalAlign=middle;" connectable="0" vertex="1" parent="6dqqA6lwFiBKSvKB13f8-59">
          <mxGeometry relative="1" as="geometry">
            <mxPoint x="-17" y="-1" as="offset" />
          </mxGeometry>
        </mxCell>
        <mxCell id="6dqqA6lwFiBKSvKB13f8-87" value="" style="endArrow=classicThin;html=1;rounded=0;elbow=vertical;endFill=1;strokeWidth=2;fillColor=#60a917;strokeColor=#2D7600;" edge="1" parent="1" target="6dqqA6lwFiBKSvKB13f8-4">
          <mxGeometry width="50" height="50" relative="1" as="geometry">
            <mxPoint x="946.357272727273" y="371" as="sourcePoint" />
            <mxPoint x="947" y="390" as="targetPoint" />
          </mxGeometry>
        </mxCell>
        <mxCell id="6dqqA6lwFiBKSvKB13f8-88" value="" style="endArrow=classicThin;html=1;rounded=0;elbow=vertical;endFill=1;strokeWidth=2;fillColor=#60a917;strokeColor=#2D7600;" edge="1" parent="1">
          <mxGeometry width="50" height="50" relative="1" as="geometry">
            <mxPoint x="810.357272727273" y="371" as="sourcePoint" />
            <mxPoint x="810" y="400" as="targetPoint" />
          </mxGeometry>
        </mxCell>
        <mxCell id="6dqqA6lwFiBKSvKB13f8-89" value="" style="endArrow=none;html=1;rounded=0;elbow=vertical;strokeWidth=2;fillColor=#60a917;strokeColor=#2D7600;" edge="1" parent="1" target="6dqqA6lwFiBKSvKB13f8-1">
          <mxGeometry width="50" height="50" relative="1" as="geometry">
            <mxPoint x="870" y="370" as="sourcePoint" />
            <mxPoint x="940" y="280" as="targetPoint" />
          </mxGeometry>
        </mxCell>
        <mxCell id="6dqqA6lwFiBKSvKB13f8-91" value="" style="endArrow=classicThin;html=1;rounded=1;edgeStyle=elbowEdgeStyle;elbow=vertical;strokeWidth=2;fillColor=#f0a30a;strokeColor=#BD7000;curved=0;startArrow=classicThin;startFill=1;jumpStyle=none;endFill=1;flowAnimation=0;shadow=0;noJump=0;ignoreEdge=0;orthogonalLoop=0;orthogonal=0;enumerate=0;comic=0;snapToPoint=0;" edge="1" parent="1">
          <mxGeometry relative="1" as="geometry">
            <mxPoint x="648" y="480.8" as="sourcePoint" />
            <mxPoint x="1048" y="480.8" as="targetPoint" />
            <Array as="points">
              <mxPoint x="850" y="530" />
              <mxPoint x="805" y="520.8" />
            </Array>
          </mxGeometry>
        </mxCell>
        <mxCell id="6dqqA6lwFiBKSvKB13f8-93" value="" style="endArrow=classicThin;html=1;rounded=0;elbow=vertical;endFill=1;strokeWidth=2;fillColor=#f0a30a;strokeColor=#BD7000;" edge="1" parent="1">
          <mxGeometry width="50" height="50" relative="1" as="geometry">
            <mxPoint x="927.257272727273" y="529.7199999999999" as="sourcePoint" />
            <mxPoint x="926.74" y="482" as="targetPoint" />
          </mxGeometry>
        </mxCell>
        <mxCell id="6dqqA6lwFiBKSvKB13f8-94" value="" style="endArrow=classicThin;html=1;rounded=0;elbow=vertical;endFill=1;strokeWidth=2;fillColor=#f0a30a;strokeColor=#BD7000;entryX=0.35;entryY=0.571;entryDx=0;entryDy=0;entryPerimeter=0;exitX=0.35;exitY=0.571;exitDx=0;exitDy=0;exitPerimeter=0;" edge="1" parent="1">
          <mxGeometry width="50" height="50" relative="1" as="geometry">
            <mxPoint x="796.5172727272729" y="529" as="sourcePoint" />
            <mxPoint x="796" y="480.8800000000001" as="targetPoint" />
          </mxGeometry>
        </mxCell>
        <mxCell id="6dqqA6lwFiBKSvKB13f8-99" value="tcp/9100" style="edgeLabel;resizable=0;html=1;;align=center;verticalAlign=middle;" connectable="0" vertex="1" parent="1">
          <mxGeometry x="676.5999999999999" y="490" as="geometry" />
        </mxCell>
        <mxCell id="6dqqA6lwFiBKSvKB13f8-100" value="tcp/9100" style="edgeLabel;resizable=0;html=1;;align=center;verticalAlign=middle;" connectable="0" vertex="1" parent="1">
          <mxGeometry x="825.8" y="490" as="geometry" />
        </mxCell>
        <mxCell id="6dqqA6lwFiBKSvKB13f8-101" value="tcp/9100" style="edgeLabel;resizable=0;html=1;;align=center;verticalAlign=middle;" connectable="0" vertex="1" parent="1">
          <mxGeometry x="956.9999999999999" y="490" as="geometry" />
        </mxCell>
        <mxCell id="6dqqA6lwFiBKSvKB13f8-102" value="tcp/9100" style="edgeLabel;resizable=0;html=1;;align=center;verticalAlign=middle;" connectable="0" vertex="1" parent="1">
          <mxGeometry x="1078" y="490" as="geometry" />
        </mxCell>
        <mxCell id="6dqqA6lwFiBKSvKB13f8-103" value="tcp/9176" style="edgeLabel;resizable=0;html=1;;align=center;verticalAlign=middle;" connectable="0" vertex="1" parent="1">
          <mxGeometry x="825.8" y="500" as="geometry" />
        </mxCell>
        <mxCell id="6dqqA6lwFiBKSvKB13f8-104" value="tcp/9176" style="edgeLabel;resizable=0;html=1;;align=center;verticalAlign=middle;" connectable="0" vertex="1" parent="1">
          <mxGeometry x="957" y="500" as="geometry" />
        </mxCell>
        <mxCell id="6dqqA6lwFiBKSvKB13f8-105" style="edgeStyle=elbowEdgeStyle;rounded=0;orthogonalLoop=1;jettySize=auto;elbow=vertical;html=1;exitX=1;exitY=0.5;exitDx=0;exitDy=0;" edge="1" parent="1">
          <mxGeometry relative="1" as="geometry">
            <mxPoint x="858" y="695" as="sourcePoint" />
            <mxPoint x="858" y="695.3636363636363" as="targetPoint" />
          </mxGeometry>
        </mxCell>
        <mxCell id="6dqqA6lwFiBKSvKB13f8-106" value="5" style="rounded=0;whiteSpace=wrap;html=1;" vertex="1" parent="1">
          <mxGeometry x="1266.4" y="160" width="20" height="20" as="geometry" />
        </mxCell>
        <mxCell id="6dqqA6lwFiBKSvKB13f8-107" value="6" style="rounded=0;whiteSpace=wrap;html=1;" vertex="1" parent="1">
          <mxGeometry x="548.4000000000001" y="160" width="20" height="20" as="geometry" />
        </mxCell>
        <mxCell id="6dqqA6lwFiBKSvKB13f8-108" value="YC" style="text;html=1;align=center;verticalAlign=middle;resizable=0;points=[];autosize=1;strokeColor=none;fillColor=none;" vertex="1" parent="1">
          <mxGeometry x="619.4" y="345.8" width="40" height="30" as="geometry" />
        </mxCell>
      </root>
    </mxGraphModel>
  </diagram>
</mxfile>
